<svg width="15" height="18" viewBox="0 0 15 18" fill="none" xmlns="http://www.w3.org/2000/svg">
<path d="M2.80286 18C2.32286 18 1.91429 17.8204 1.57714 17.4613C1.24 17.1021 1.07143 16.6672 1.07143 16.1566V2.02029H0V0.878884H4.28571V0H10.7143V0.878884H15V2.02029H13.9286V16.1566C13.9286 16.6817 13.7636 17.1204 13.4336 17.4727C13.1036 17.825 12.6914 18.0008 12.1971 18H2.80286ZM12.8571 2.02029H2.14286V16.1566C2.14286 16.3613 2.20464 16.5295 2.32821 16.6611C2.45179 16.7928 2.61 16.8586 2.80286 16.8586H12.1982C12.3625 16.8586 12.5136 16.7855 12.6514 16.6394C12.7893 16.4933 12.8579 16.332 12.8571 16.1555V2.02029ZM5.15143 14.5758H6.22286V4.30311H5.15143V14.5758ZM8.77714 14.5758H9.84857V4.30311H8.77714V14.5758Z" fill="#DE0E0E"/>
</svg>
